<?xml version="1.0" standalone="no"?>
<!DOCTYPE svg PUBLIC "-//W3C//DTD SVG 20010904//EN"
 "http://www.w3.org/TR/2001/REC-SVG-20010904/DTD/svg10.dtd">
<svg version="1.0" xmlns="http://www.w3.org/2000/svg"
 width="972.000000pt" height="1280.000000pt" viewBox="0 0 972.000000 1280.000000"
 preserveAspectRatio="xMidYMid meet">
<metadata>
Created by potrace 1.15, written by Peter Selinger 2001-2017
</metadata>
<g transform="translate(0.000000,1280.000000) scale(0.100000,-0.100000)"
fill="#00472e" stroke="none">
<path d="M4500 8093 c-310 -6 -681 -25 -1020 -54 -253 -21 -653 -69 -830 -99
-30 -5 -98 -17 -150 -25 -586 -99 -1101 -263 -1350 -431 -90 -60 -185 -162
-219 -233 -25 -54 -26 -63 -26 -226 1 -93 6 -226 13 -295 27 -264 33 -318 43
-400 153 -1238 509 -2332 1013 -3114 31 -48 56 -90 56 -94 0 -5 -57 -21 -127
-36 -161 -36 -536 -143 -667 -191 -382 -139 -656 -288 -813 -443 -128 -124
-177 -226 -176 -362 0 -47 6 -110 13 -140 39 -168 180 -324 429 -476 55 -34
97 -65 93 -69 -4 -5 1 -5 11 -2 10 4 16 3 13 -2 -13 -21 214 -167 397 -255
806 -389 2190 -626 3657 -626 1909 0 3622 400 4166 972 33 35 92 90 130 123
186 159 254 302 232 484 -17 147 -66 240 -185 356 -244 238 -796 476 -1453
625 -74 17 -141 33 -147 35 -8 3 9 39 50 102 249 383 473 871 642 1394 l47
146 47 22 c149 72 346 216 490 360 477 475 665 1078 453 1461 -47 86 -148 186
-245 243 -71 41 -199 89 -313 117 l-42 10 -4 108 c-3 96 -7 114 -36 176 -121
257 -581 466 -1362 621 -225 45 -242 48 -482 85 -118 17 -347 45 -493 60 -60
6 -153 15 -205 20 -178 18 -584 40 -915 50 -307 9 -409 10 -735 3z m4258
-1713 c25 -41 27 -54 27 -150 0 -93 -3 -113 -29 -175 -41 -99 -166 -291 -166
-253 0 7 7 54 15 103 21 121 61 414 70 498 l7 69 25 -24 c14 -12 37 -43 51
-68z"/>
</g>
</svg>
